# xmcd
#
# Track frame offsets:
#	150
#	25699
#	55668
#	65975
#	89324
#	116106
#
# Disc length: 2257 seconds
#
# Revision: 0
# Processed by: cddbd v1.5.2PL0 Copyright (c) Steve Scherf et al.
# Submitted via: dBpowerAMP V4.0
#
DISCID=4d08cf06
DTITLE=24-Carat Black - Gone: The Promises Of Yesterday
DYEAR=2009
DGENRE=Soul
TTITLE0=The Best Of Good Love Gone
TTITLE1=I Want To Make Up
TTITLE2=I Don't Love You
TTITLE3=I'll Never Let You Go
TTITLE4=Gone, The Promises Of Yesterday
TTITLE5=I Begin To Weep
EXTD=Sean P.
EXTT0=
EXTT1=
EXTT2=
EXTT3=
EXTT4=
EXTT5=
PLAYORDER=
